<svg width="23" height="24" viewBox="0 0 23 24" fill="none" xmlns="http://www.w3.org/2000/svg">
<path opacity="0.3" d="M11.5 21.8183C5.14855 21.8183 0 16.9332 0 10.9092V13.091C0 19.115 5.14855 24.0001 11.5 24.0001C17.8503 24.0001 23 19.115 23 13.091V10.9092C23 16.9332 17.8503 21.8183 11.5 21.8183Z" fill="#ABABAB"/>
<path d="M11.5 21.8182C17.8513 21.8182 23 16.934 23 10.9091C23 4.88417 17.8513 0 11.5 0C5.14873 0 0 4.88417 0 10.9091C0 16.934 5.14873 21.8182 11.5 21.8182Z" fill="white"/>
<path d="M11.4992 13.0909C12.7695 13.0909 13.7992 12.1141 13.7992 10.9091C13.7992 9.70413 12.7695 8.72729 11.4992 8.72729C10.229 8.72729 9.19922 9.70413 9.19922 10.9091C9.19922 12.1141 10.229 13.0909 11.4992 13.0909Z" fill="#ABABAB"/>
</svg>
