<svg width="80" height="80" viewBox="0 0 80 80" fill="none" xmlns="http://www.w3.org/2000/svg">
<path fill-rule="evenodd" clip-rule="evenodd" d="M11.062 41.544H71.939C71.98 40.925 72.008 40.303 72.008 39.674C72.008 39.2812 71.9921 38.8934 71.9761 38.5046V38.5045L71.976 38.501C71.311 22.657 57.27 10 40.036 10C22.803 10 8.761 22.657 8.097 38.501C8.08 38.891 8.065 39.281 8.065 39.674C8.065 40.303 8.093 40.925 8.135 41.544H11.062ZM24.041 52.465L18.718 48.406L13.392 52.465L7.204 47.751L8.925 45.294L13.392 48.695L18.719 44.638L24.042 48.695L29.367 44.638L34.695 48.695L40.023 44.638L45.351 48.695L50.68 44.638L56.007 48.695L61.337 44.639L66.673 48.696L71.147 45.293L72.867 47.752L66.673 52.464L61.337 48.405L56.007 52.465L50.68 48.406L45.351 52.465L40.023 48.406L34.695 52.465L29.367 48.406L24.041 52.465ZM7.135 56.71H72.938C75.212 56.71 77.072 58.65 77.072 61.023V64.527C77.072 66.899 75.211 68.84 72.937 68.84H72.007V69.893C72.007 75.429 67.665 79.958 62.359 79.958H17.713C12.406 79.958 8.065 75.429 8.065 69.893V68.84H7.135C4.861 68.84 3 66.899 3 64.527V61.023C3 58.65 4.861 56.71 7.135 56.71ZM62.36 76.915C66.071 76.915 69.09 73.765 69.09 69.894H69.089V68.841H10.982V69.894C10.982 73.765 14.002 76.915 17.713 76.915H62.36ZM74.155 64.527C74.155 65.215 73.597 65.798 72.937 65.798H7.135C6.475 65.798 5.918 65.216 5.918 64.527V61.023C5.918 60.335 6.476 59.752 7.135 59.752H72.937C73.597 59.752 74.155 60.334 74.155 61.023V64.527ZM69.057 38.501C68.386 24.359 55.627 13.043 40.036 13.043C24.445 13.043 11.688 24.359 11.015 38.501H69.057Z" fill="#81B3D2"/>
<path d="M40.0348 27.29C41.109 27.29 41.9798 26.3811 41.9798 25.26C41.9798 24.1388 41.109 23.23 40.0348 23.23C38.9606 23.23 38.0898 24.1388 38.0898 25.26C38.0898 26.3811 38.9606 27.29 40.0348 27.29Z" fill="#81B3D2"/>
<path d="M32.2546 22.26C33.3293 22.26 34.2006 21.3511 34.2006 20.23C34.2006 19.1088 33.3293 18.2 32.2546 18.2C31.1798 18.2 30.3086 19.1088 30.3086 20.23C30.3086 21.3511 31.1798 22.26 32.2546 22.26Z" fill="#81B3D2"/>
<path d="M47.8171 22.26C48.8918 22.26 49.7631 21.3511 49.7631 20.23C49.7631 19.1088 48.8918 18.2 47.8171 18.2C46.7423 18.2 45.8711 19.1088 45.8711 20.23C45.8711 21.3511 46.7423 22.26 47.8171 22.26Z" fill="#81B3D2"/>
</svg>
