<svg width="80" height="80" viewBox="0 0 80 80" fill="none" xmlns="http://www.w3.org/2000/svg">
<path fill-rule="evenodd" clip-rule="evenodd" d="M48.5039 73.033H32.5039V49.21H48.5039V73.033ZM45.5659 52.134H35.4409V70.11H45.5659V52.134Z" fill="#81B3D2"/>
<path fill-rule="evenodd" clip-rule="evenodd" d="M75.619 47.253L77.695 45.185L67.787 35.32V8H53.975V21.567L40.348 8L3 45.185L5.077 47.253L12.909 39.458V77.076H8.972V80H72.847V77.076H67.788V39.458L75.619 47.253ZM64.85 77.076H15.847V36.534L40.348 12.149L64.85 36.534V77.076ZM56.912 24.492L64.85 32.394V10.924H56.912V24.492Z" fill="#81B3D2"/>
<path fill-rule="evenodd" clip-rule="evenodd" d="M40.5052 42.7929C36.2252 42.7929 32.7552 39.3409 32.7552 35.0799C32.7552 30.8209 36.2242 27.3669 40.5052 27.3669C44.7842 27.3669 48.2552 30.8209 48.2552 35.0799C48.2552 39.3409 44.7842 42.7929 40.5052 42.7929ZM45.4742 35.0799C45.4742 32.3489 43.2492 30.1349 40.5052 30.1349C37.7602 30.1349 35.5352 32.3489 35.5352 35.0799C35.5352 37.8119 37.7592 40.0279 40.5052 40.0279C43.2492 40.0279 45.4742 37.8119 45.4742 35.0799ZM19.9102 49.2099H22.9102V53.1289H19.9102V49.2099ZM28.8482 49.2099H25.8482V53.1289H28.8482V49.2099ZM19.9102 55.1819H22.9102V59.1009H19.9102V55.1819ZM28.8482 55.1819H25.8482V59.1009H28.8482V55.1819ZM51.8472 49.2099H54.8472V53.1289H51.8472V49.2099ZM60.7852 49.2099H57.7852V53.1289H60.7852V49.2099ZM51.8472 55.1819H54.8472V59.1009H51.8472V55.1819ZM60.7852 55.1819H57.7852V59.1009H60.7852V55.1819Z" fill="#81B3D2"/>
</svg>
