<svg width="80" height="80" viewBox="0 0 80 80" fill="none" xmlns="http://www.w3.org/2000/svg">
<path fill-rule="evenodd" clip-rule="evenodd" d="M69.097 26.5016H44.312C58.125 19.6026 59.229 15.2506 58.72 12.8166C57.558 8.85361 53.028 5.79361 48.718 7.40961C43.149 9.49861 41.581 17.7976 40.074 23.7966C38.15 17.7266 36.29 9.98261 31.938 6.05961C30.677 4.92161 28.843 3.79561 26.175 4.03161C22.149 4.38761 16.373 9.41361 18.717 15.0126C20.968 20.3906 28.404 23.7896 33.295 26.5016H10.879C9.29355 26.5032 8.00715 27.7852 8 29.3706V40.6926C8.00715 42.278 9.29355 43.56 10.879 43.5616H11.153V80.0006H68.994V43.5616H69.097C70.6828 43.5605 71.9698 42.2784 71.977 40.6926V29.3706C71.9698 27.7848 70.6828 26.5027 69.097 26.5016ZM50.413 9.94461C52.516 9.63461 55.395 11.2436 55.668 13.1536C56.061 15.9096 52.268 18.4086 50.582 19.5746C48.059 21.3186 45.654 22.2176 43.295 23.6296C44.179 19.9396 45.844 10.6186 50.413 9.94461V9.94461ZM27.531 19.9126C25.306 18.4276 20.987 15.4816 21.091 12.1416C21.203 8.54661 26.834 5.57161 29.905 8.25561C33.761 11.6266 35.618 19.3606 37.024 24.8126C33.775 23.2736 30.696 22.0246 27.531 19.9126V19.9126ZM33.503 77.0266H14.136V43.5616H33.504V77.0266H33.503ZM33.503 40.5246H11.046V29.5386H33.503V40.5246V40.5246ZM43.66 40.5246V77.0276H36.486V29.5386H43.66V40.5246ZM66.011 77.0266H46.644V43.5616H66.011V77.0266V77.0266ZM68.931 40.5246H46.644V29.5386H68.931V40.5246V40.5246Z" fill="#81B3D2"/>
</svg>
