<svg width="458" height="352" viewBox="0 0 458 352" fill="none" xmlns="http://www.w3.org/2000/svg">
<path fill-rule="evenodd" clip-rule="evenodd" d="M181.772 56.0898L178.927 60.9668H176.198L175.328 62.4008H178.085L172.016 72.7838C170.739 74.9918 171.64 77.0298 174.078 77.0298C175.301 77.0298 176.616 76.3928 177.931 75.4088L177.153 76.7428H180.199L184.787 68.8558C189.431 63.0888 191.493 63.8358 190.186 66.0458L186.266 72.7858C184.988 74.9958 185.889 77.0338 188.327 77.0338C190.123 77.0338 192.115 75.6638 194.02 73.8288C194.166 75.6858 195.687 77.0338 198.11 77.0338C201.533 77.0338 204.93 74.3938 207.426 71.5258C207.229 71.1228 206.707 70.6648 206.3 70.4928L206.097 70.7188C203.919 73.2158 201.133 75.1938 199.015 75.1938C197.155 75.1938 196.051 74.0478 197.445 71.6388L197.735 71.1188C199.681 71.9238 203.339 71.5498 205.603 67.6788L206.04 66.9318C207.665 64.1788 206.098 62.1138 203.63 62.1138C201.191 62.1138 199.247 63.3768 197.97 65.5548L195.04 70.5198L194.864 70.7198C192.687 73.2138 190.569 75.1918 189.233 75.1918C188.567 75.1918 188.187 74.7318 188.883 73.5568L193.238 66.0138C194.544 63.7488 193.298 62.1138 191.614 62.1138C190.307 62.1138 188.912 62.8308 187.404 64.3788L192.222 56.0898H189.203L180.78 70.5278L180.61 70.7178C178.434 73.2138 176.313 75.1918 174.977 75.1918C174.31 75.1918 173.933 74.7318 174.631 73.5568L181.103 62.3988H183.57L184.442 60.9658H181.946L184.791 56.0908L181.772 56.0898ZM149.463 60.9688L152.308 56.0938H155.327L152.481 60.9668H154.98L154.108 62.4028H151.643L145.167 73.5608C144.47 74.7358 144.848 75.1958 145.515 75.1958C146.85 75.1958 148.972 73.2168 151.148 70.7208L151.304 70.5448L152.541 68.4548L154.021 65.9018C155.763 62.9178 157.561 62.0018 159.883 62.0018C162.729 62.0018 164.412 64.9548 162.584 68.0818L159.739 72.9278C161.25 72.8988 162.933 72.1838 164.297 70.7208L164.502 70.4928C164.908 70.6648 165.43 71.1218 165.63 71.5258C164.09 73.3318 161.246 74.4218 159.446 74.4218H158.78C155.511 78.5058 150.164 77.7628 150.17 73.9608C148.304 75.7298 146.367 77.0338 144.613 77.0338C142.175 77.0338 141.274 74.9958 142.552 72.7868L148.62 62.4038H145.863L146.733 60.9688H149.463ZM160.261 66.9668C161.289 65.2248 160.823 64.0198 159.839 63.9298C159.074 63.8598 157.996 64.4658 157.069 66.0218L155.618 68.4588L153.324 72.3868C151.524 75.4838 154.981 75.9428 156.403 73.5328L156.433 73.4768C156.258 73.1888 156.142 72.8438 156.142 72.4728C156.142 71.4978 156.925 70.6938 157.912 70.6938H158.057L160.261 66.9668ZM203.573 66.9358C204.585 65.1918 204.053 64.2748 203.084 64.3318V64.3328C202.332 64.3768 201.315 65.0108 200.552 66.3028L198.606 69.6598C199.739 70.0618 201.686 70.1198 203.136 67.6818L203.573 66.9358ZM247.402 58.8688C245.688 60.3888 245.544 62.0828 246.619 63.4588L246.881 63.8028L246.819 63.8897C245.491 65.7457 243.716 68.2253 241.771 70.4868L241.773 70.4898L241.57 70.7188C240.205 72.1798 238.524 72.8988 237.012 72.9278L239.855 68.0798C241.685 64.9538 240.002 61.9998 237.155 61.9998C234.835 61.9998 233.035 62.9178 231.295 65.8998L229.811 68.4528L228.573 70.5448L228.419 70.7208C225.922 73.5608 223.776 75.3918 221.394 76.3968L228.157 64.9828H226.387C226.387 63.7488 225.111 62.1128 223.223 62.1128C221.599 62.1128 219.333 63.3778 218.055 65.5568L213.817 72.7838C212.539 74.9918 213.439 77.0298 215.877 77.0298C216.72 77.0298 217.737 76.6558 218.754 76.0258L217.911 77.4298C213.847 78.6628 211.291 80.2978 211.291 82.5358C211.291 85.4048 215.733 86.0068 217.911 82.3358L220.203 78.4058C222.619 77.6628 224.986 76.2588 227.443 73.9418C227.422 77.7588 232.78 78.5088 236.053 74.4178H236.721C238.521 74.4178 241.366 73.3288 242.905 71.5218C244.354 69.8578 245.485 68.3668 247.895 65.1268L248.3 65.6158C248.677 66.1028 248.825 66.7058 248.475 67.3068L245.282 72.7858C244.002 74.9958 244.903 77.0318 247.343 77.0318C248.873 77.0318 250.547 76.0368 252.185 74.6098C252.135 75.9958 253.072 77.0318 254.804 77.0318C255.644 77.0318 256.661 76.6588 257.678 76.0278L256.836 77.4298C252.771 78.6628 250.22 80.2978 250.22 82.5358C250.22 85.4048 254.66 86.0058 256.836 82.3358L259.128 78.4058C261.588 77.6478 263.998 76.1998 266.505 73.8068C266.641 75.6748 268.163 77.0318 270.595 77.0318C273.053 77.0318 275.494 75.6688 277.599 73.8418C277.482 77.7468 282.909 78.5448 286.211 74.4198H286.879C287.824 74.4198 289.054 74.1118 290.236 73.5668C289.423 75.6398 290.17 77.0318 291.897 77.0318C293.553 77.0318 295.41 75.5398 296.861 74.1638C296.571 75.7688 297.528 77.0318 299.445 77.0318C301.941 77.0318 304.815 74.3948 307.313 71.5258L307.311 71.5238C308.666 69.9794 309.895 68.348 310.881 67.0381L310.881 67.0379C311.142 66.6923 311.385 66.3691 311.609 66.0758C311.21 67.116 311.016 68.4348 310.826 69.7276C310.45 72.2826 310.09 74.7358 308.183 74.7358C307.167 74.7358 306.763 73.6458 306.763 73.6458L304.873 74.6208C304.873 74.6208 305.424 77.0328 308.183 77.0328C308.451 77.0328 308.695 77.0073 308.958 76.9797L309.023 76.9728C309.038 76.9728 309.054 76.9661 309.069 76.9593C309.084 76.9526 309.099 76.9458 309.114 76.9458C312.19 76.5458 315.238 74.1358 317.502 71.5258C317.329 71.0668 316.806 70.6078 316.372 70.4918L316.169 70.7208C315.104 71.9531 313.884 73.0422 312.539 73.9608C312.915 72.8471 313.112 71.4995 313.325 70.0428C313.655 67.7851 314.023 65.2651 315.153 62.9468L312.889 61.7418C312.658 62.0547 312.377 62.443 312.054 62.888C310.631 64.851 308.408 67.9179 306.183 70.4898V70.4918L305.98 70.7208C303.804 73.2168 301.685 75.1928 300.349 75.1928C299.682 75.1928 299.304 74.7338 300.002 73.5588L306.446 62.4008H303.426L298.056 71.6658C295.763 73.7298 293.994 74.8778 293.412 74.6188C292.713 74.3275 293.311 73.3432 293.703 72.6986C293.734 72.6485 293.763 72.6004 293.79 72.5548L299.683 62.4028H296.663L291.929 70.4948L291.73 70.7208C290.366 72.1838 288.683 72.9008 287.172 72.9308L290.017 68.0818C291.845 64.9548 290.167 62.0018 287.318 62.0018C284.995 62.0018 283.195 62.9198 281.454 65.9048L279.972 68.4548L278.735 70.5448L278.58 70.7228C276.404 73.2188 273.616 75.1958 271.497 75.1958C269.639 75.1958 268.537 74.0498 269.93 71.6408L270.22 71.1228C272.164 71.9268 275.824 71.5528 278.087 67.6798L278.525 66.9338C280.148 64.1798 278.583 62.1148 276.115 62.1148C273.675 62.1148 271.728 63.3798 270.452 65.5588L267.526 70.5238L267.351 70.7208C264.852 73.5608 262.706 75.3938 260.323 76.3988L267.087 64.9828H265.315C265.315 63.7488 264.038 62.1148 262.151 62.1148C260.526 62.1148 258.262 63.3778 256.984 65.5568L254.088 70.4938L254.08 70.4898L253.877 70.7198C251.701 73.2148 249.579 75.1938 248.243 75.1938C247.576 75.1938 247.201 74.7338 247.897 73.5588L250.915 68.3388C251.96 66.5318 251.466 65.4688 250.478 64.2928L248.795 62.2828C248.36 61.7378 248.36 61.1368 248.97 60.5628L247.402 58.8688ZM237.532 66.9668C238.559 65.2248 238.092 64.0188 237.108 63.9288V63.9298C236.344 63.8598 235.268 64.4658 234.34 66.0218L232.887 68.4588L230.595 72.3868C228.795 75.4838 232.251 75.9428 233.673 73.5328L233.701 73.4768C233.527 73.1888 233.411 72.8438 233.411 72.4728C233.411 71.4978 234.195 70.6938 235.181 70.6938H235.328L237.532 66.9668ZM287.266 63.9288C288.25 64.0188 288.719 65.2248 287.692 66.9668L285.486 70.6938H285.339C284.353 70.6938 283.571 71.4978 283.571 72.4728C283.571 72.8438 283.687 73.1888 283.86 73.4768L283.83 73.5328C282.409 75.9428 278.955 75.4838 280.755 72.3868L283.047 68.4588L284.498 66.0218C285.425 64.4658 286.501 63.8598 287.266 63.9298V63.9288ZM276.051 66.9358C277.063 65.1928 276.534 64.2768 275.566 64.3338V64.3348C274.814 64.3788 273.796 65.0128 273.034 66.3048L271.086 69.6598C272.219 70.0618 274.165 70.1198 275.616 67.6818L276.051 66.9358ZM223.163 64.5348C224.186 64.5288 224.841 65.4188 224.008 66.9348L221.716 70.8948C219.886 73.7918 218.056 75.1948 216.778 75.1948C216.111 75.1948 215.733 74.7358 216.429 73.5608L220.641 66.3048C221.351 65.0878 222.368 64.5398 223.163 64.5348ZM262.931 66.9348C263.764 65.4188 263.109 64.5288 262.086 64.5348C261.291 64.5398 260.274 65.0878 259.564 66.3048L255.354 73.5608C254.66 74.7358 255.036 75.1948 255.703 75.1948C256.979 75.1948 258.811 73.7918 260.639 70.8948L262.931 66.9348ZM216.748 79.4428L216.748 79.4441C214.457 80.332 213.73 81.2199 213.73 81.9938C213.73 82.7968 214.746 82.9678 215.384 81.8498L216.748 79.4441L216.748 79.4438V79.4428ZM255.673 79.4441L255.673 79.4428V79.4438L255.673 79.4441ZM255.673 79.4441L254.311 81.8498C253.671 82.9678 252.655 82.7968 252.655 81.9938C252.655 81.2199 253.381 80.332 255.673 79.4441ZM101.023 67.8308H129.945V69.7808H101.023V67.8308ZM356.975 67.8308H328.053V69.7808H356.975V67.8308Z" fill="#766458"/>
<path fill-rule="evenodd" clip-rule="evenodd" d="M194.824 37.364V45.1H174.008V0.353027H194.824V8.02303H181.624V18.827H192.159V26.497H181.624V37.363L194.824 37.364ZM216.17 45.1V37.364L205.573 37.363V0.353027H197.957V45.1H216.17ZM322.7 45.1V37.364H309.499V26.497H320.034V18.827H309.499V8.02403H322.7V0.353027H301.884V45.1H322.7ZM297.459 0.354027H289.908L283.115 21.959L276.324 0.354027H268.772V45.101H276.389V23.111L279.371 34.489H286.796L289.843 23.111V45.101H297.459V0.354027ZM257.999 8.02403H252.476V37.364H258L257.999 8.02403ZM265.679 5.08503C265.679 2.46303 263.521 0.354027 260.981 0.354027L249.557 0.355027C246.957 0.355027 244.861 2.46403 244.861 5.08503V40.37C244.861 42.927 246.957 45.1 249.557 45.1H260.981C263.521 45.1 265.679 42.927 265.679 40.37V5.08503ZM232.971 28.606L240.649 26.816V40.368C240.649 42.925 238.492 45.098 235.953 45.098H224.528C221.928 45.098 219.833 42.925 219.833 40.368V5.08403C219.833 2.46203 221.928 0.354027 224.528 0.354027H235.951C238.491 0.354027 240.648 2.46203 240.648 5.08403V14.161L232.97 15.951V8.02303H227.448V37.363H232.97L232.971 28.606ZM170.241 0.354027H162.564L161.994 37.364H161.232L156.344 0.354027H148.792L144.032 37.364H143.208L142.573 0.354027H134.957L136.099 45.1H150.632L152.599 26.626L154.567 45.1H169.037L170.241 0.354027Z" fill="#81B3D3"/>
<path fill-rule="evenodd" clip-rule="evenodd" d="M9.67181 190.115C9.74881 190.193 9.78781 190.27 9.78781 190.348C9.86581 190.348 9.94281 190.386 10.0198 190.464C12.1098 192.786 14.4718 194.954 17.1038 196.967C19.7358 198.902 22.7558 199.947 26.1618 200.102C26.2398 200.102 26.3168 200.142 26.3938 200.219H26.7428C26.8198 200.219 26.8978 200.257 26.9748 200.335H28.2518C28.6398 200.257 28.9878 200.18 29.2978 200.102C30.5388 199.869 31.7223 199.396 32.7818 198.709C33.9418 198.012 34.8328 197.16 35.4518 196.154L35.6848 195.689L35.9168 195.225C36.0718 194.683 36.1878 194.18 36.2658 193.715C36.3428 193.251 36.3818 192.825 36.3818 192.438C36.3818 190.348 35.4518 188.606 33.5948 187.212C31.8633 185.769 29.8998 184.631 27.7878 183.844C26.9935 183.551 26.1782 183.318 25.3488 183.148C24.6207 182.928 23.8849 182.734 23.1428 182.567H22.9108C22.8328 182.49 22.7558 182.451 22.6788 182.451C18.9133 181.534 15.3102 180.045 11.9948 178.038C8.66481 175.948 6.38181 172.967 5.14281 169.096C4.90018 168.286 4.66783 167.473 4.44581 166.657C4.28687 165.773 4.17073 164.882 4.09781 163.987C4.02647 163.721 3.98753 163.448 3.98181 163.173V160.386C4.05881 159.767 4.17481 159.148 4.32981 158.528C4.57022 156.947 4.95893 155.392 5.49081 153.883C6.03281 152.335 6.72981 150.941 7.58081 149.703C10.0588 145.599 13.2328 142.657 17.1038 140.877C21.0528 139.096 25.1558 138.206 29.4138 138.206C30.4208 138.206 31.4268 138.283 32.4338 138.438C33.5212 138.516 34.6056 138.632 35.6848 138.786C38.5088 139.261 41.2732 140.04 43.9298 141.109C46.7168 142.193 49.2718 143.47 51.5948 144.941L45.2078 159.225C43.1234 157.681 40.9084 156.321 38.5878 155.161C36.2658 153.999 33.7498 153.419 31.0398 153.419H30.1098C28.3298 153.651 26.6658 154.464 25.1168 155.857C23.5688 157.173 22.7948 158.606 22.7948 160.154V160.851C22.8718 161.083 22.9878 161.315 23.1428 161.548C23.2978 162.09 23.5688 162.593 23.9558 163.058C24.3428 163.522 24.7688 163.948 25.2328 164.335C26.0848 165.032 27.3228 165.69 28.9498 166.309C30.5748 166.851 32.2788 167.393 34.0598 167.935C35.5298 168.322 36.9618 168.709 38.3558 169.096C39.7498 169.406 40.9108 169.716 41.8398 170.026C46.1748 171.574 49.4268 174.167 51.5948 177.806C53.7618 181.367 54.8848 185.161 54.9618 189.186V189.767C54.9618 190.232 54.9238 190.697 54.8458 191.161V192.438C54.3818 196.464 53.0658 200.296 50.8978 203.935C48.8078 207.574 45.9818 210.361 42.4208 212.297C41.099 212.918 39.7416 213.461 38.3558 213.922C36.9718 214.307 35.578 214.656 34.1758 214.968C33.0259 215.199 31.862 215.354 30.6918 215.432C29.5755 215.584 28.4504 215.661 27.3238 215.664H26.0458C21.4008 215.51 16.8338 214.503 12.3428 212.644C7.85281 210.709 3.86581 208.154 0.382812 204.98L9.67181 190.115ZM225.566 143.869C219.218 147.353 214.263 152.386 210.702 158.966L210.701 158.965C209.678 160.861 208.823 162.842 208.146 164.887C207.46 166.859 206.917 168.877 206.521 170.926C206.288 172.011 206.133 173.055 206.056 174.061C205.979 175.068 205.94 176.075 205.94 177.081C205.94 183.894 207.798 190.475 211.514 196.823C215.23 203.094 220.34 207.933 226.843 211.339C229.211 212.565 231.702 213.538 234.275 214.242C236.863 214.931 239.505 215.397 242.172 215.636H243.682C244.22 215.713 244.764 215.752 245.308 215.752C252.894 215.752 260.134 213.7 267.024 209.597C273.914 205.417 278.985 199.572 282.236 192.062C282.844 190.55 283.348 188.998 283.746 187.417C284.204 185.823 284.515 184.191 284.675 182.54C284.83 181.765 284.908 180.991 284.908 180.217C284.985 179.365 285.024 178.552 285.024 177.778C285.024 171.354 283.514 165.198 280.495 159.314C277.476 153.353 273.218 148.592 267.721 145.03C265.171 143.407 262.444 142.082 259.592 141.082C256.848 140.086 254.006 139.386 251.114 138.992C250.185 138.914 249.218 138.837 248.211 138.759C247.282 138.682 246.353 138.643 245.424 138.643C238.534 138.643 231.914 140.385 225.566 143.869ZM298.711 213.95V139.976H318.221L346.092 177.95C346.812 179.075 347.471 180.238 348.066 181.434C348.77 182.608 349.428 183.809 350.04 185.034L351.434 188.054C351.898 189.06 352.363 190.027 352.827 190.956C352.754 190.138 352.638 189.324 352.479 188.518C352.402 187.744 352.324 186.931 352.247 186.079C352.089 184.495 351.973 182.908 351.898 181.318C351.818 179.655 351.779 177.989 351.782 176.324V139.976H371.175V213.95H351.782L323.679 175.744C322.905 174.815 322.169 173.731 321.473 172.493C320.768 171.161 320.11 169.805 319.499 168.428C319.049 167.453 318.585 166.485 318.105 165.525C317.745 164.585 317.358 163.655 316.944 162.738C317.331 165.138 317.641 167.577 317.873 170.054C318.105 172.531 318.215 175.009 318.221 177.486V213.95H298.711ZM406.171 139.976L380.739 213.95H400.713L404.545 200.595H433.113L436.829 213.95H457.035L431.371 139.976H406.171ZM408.843 186.311L416.391 161.808C416.698 160.733 416.969 159.649 417.204 158.556C417.52 157.445 417.791 156.322 418.016 155.189C418.093 155.034 418.133 154.918 418.133 154.84C418.133 154.686 418.171 154.531 418.249 154.376C418.326 153.911 418.404 153.485 418.481 153.098C418.636 152.634 418.752 152.208 418.829 151.821C418.907 152.208 418.984 152.634 419.062 153.098C419.139 153.486 419.255 153.911 419.41 154.376C419.652 155.659 419.923 156.937 420.223 158.208C420.598 159.412 420.986 160.612 421.384 161.808L428.933 186.311H408.843ZM263.541 185.559C263.773 184.785 263.967 183.972 264.121 183.12C264.354 182.269 264.509 181.417 264.586 180.565C264.664 180.024 264.702 179.482 264.702 178.94C264.78 178.398 264.818 177.894 264.818 177.43C264.818 176.963 264.779 176.497 264.702 176.036V174.643C264.315 171.313 263.309 168.101 261.682 165.004C260.057 161.907 257.812 159.507 254.947 157.804C254.173 157.417 253.399 157.069 252.625 156.759C251.851 156.449 251.076 156.179 250.302 155.946C249.534 155.792 248.759 155.676 247.98 155.598C247.215 155.444 246.437 155.366 245.657 155.365C241.709 155.365 238.07 156.605 234.741 159.082C231.412 161.559 229.089 164.849 227.773 168.952L227.541 169.417V169.881C227.302 170.604 227.108 171.341 226.961 172.088C226.806 172.785 226.651 173.52 226.496 174.294L226.264 175.92V178.359C226.264 178.591 226.302 178.862 226.38 179.172C226.612 183.275 227.85 187.185 230.096 190.901C232.418 194.539 235.593 196.939 239.618 198.101L241.012 198.565C241.476 198.643 241.98 198.72 242.522 198.797L243.915 199.03H245.309C249.412 199.03 253.089 197.83 256.341 195.43C259.67 192.952 262.07 189.662 263.541 185.559ZM169.54 212.092C173.798 211.162 177.746 209.459 181.385 206.982H181.386C185.876 203.73 189.321 199.55 191.721 194.44C194.121 189.33 195.437 184.027 195.67 178.53V175.627C195.67 175.162 195.631 174.698 195.553 174.234C195.244 168.968 193.889 163.859 191.489 158.904C189.089 153.95 185.721 149.963 181.386 146.944C178.022 144.486 174.187 142.746 170.122 141.834C166.096 140.905 161.992 140.324 157.812 140.092C156.651 140.014 155.451 139.976 154.212 139.976H129.128V213.95H152.934C154.173 213.95 155.413 213.911 156.65 213.834C160.985 213.602 165.282 213.022 169.54 212.092ZM148.985 197.343C149.217 197.343 149.45 197.382 149.682 197.459H150.495C150.805 197.459 151.075 197.499 151.308 197.576H154.443C155.295 197.498 156.108 197.421 156.882 197.343C158.885 197.19 160.869 196.84 162.804 196.298C164.74 195.756 166.482 194.943 168.03 193.859C170.508 192.079 172.327 189.679 173.488 186.659C174.72 183.595 175.351 180.323 175.346 177.021V176.091C175.346 175.782 175.308 175.472 175.23 175.163C175.077 172.23 174.368 169.353 173.14 166.685C171.901 163.898 170.198 161.692 168.03 160.065C166.44 158.767 164.572 157.853 162.572 157.395C160.591 156.924 158.568 156.652 156.533 156.582H148.985V197.343ZM69.0748 139.975V213.949H114.481V197.343H88.9328V184.801H112.972V169.007H88.9328V156.117H114.481V139.975H69.0748ZM351.422 336.358C351.309 336.649 351.252 336.941 351.252 337.235C351.252 337.953 351.499 338.504 351.992 338.884C352.487 339.268 353.062 339.458 353.712 339.458C353.688 339.839 353.588 340.176 353.408 340.468C353.229 340.759 353 341.016 352.732 341.228C352.465 341.441 352.178 341.621 351.875 341.767C351.571 341.912 351.297 342.029 351.047 342.119L352.397 344.109C352.43 344.093 352.462 344.077 352.495 344.062L352.524 344.048L352.581 344.022C352.642 343.993 352.704 343.966 352.767 343.939C352.973 343.851 353.213 343.731 353.493 343.587C353.8 343.424 354.099 343.244 354.386 343.047C354.688 342.844 354.97 342.613 355.229 342.356C355.782 341.807 356.222 341.154 356.525 340.436C356.829 339.717 356.98 338.928 356.98 338.078C356.98 337.627 356.914 337.201 356.778 336.797C356.643 336.393 356.453 336.045 356.206 335.753C355.915 335.436 355.559 335.196 355.145 335.026C354.729 334.858 354.297 334.774 353.847 334.774C353.442 334.774 353.077 334.848 352.752 334.994C352.441 335.129 352.16 335.323 351.925 335.566C351.702 335.802 351.534 336.065 351.422 336.358ZM359.089 337.235C359.089 336.942 359.146 336.649 359.256 336.358C359.369 336.065 359.538 335.802 359.762 335.566C359.989 335.331 360.262 335.138 360.587 334.994C360.914 334.849 361.277 334.774 361.683 334.774C362.133 334.774 362.566 334.858 362.98 335.026C363.397 335.196 363.75 335.436 364.041 335.753C364.291 336.045 364.481 336.393 364.615 336.797C364.749 337.202 364.817 337.628 364.817 338.078C364.826 338.887 364.671 339.689 364.362 340.436C364.058 341.154 363.617 341.806 363.064 342.356C362.805 342.613 362.522 342.844 362.219 343.047C361.933 343.246 361.635 343.426 361.326 343.587C361.046 343.732 360.806 343.851 360.601 343.939C360.476 343.993 360.353 344.05 360.231 344.109L358.883 342.119C359.13 342.03 359.403 341.912 359.708 341.767C360.012 341.621 360.298 341.441 360.568 341.228C360.836 341.014 361.062 340.761 361.241 340.468C361.422 340.176 361.523 339.84 361.545 339.458C360.923 339.469 360.316 339.266 359.826 338.884C359.336 338.504 359.089 337.953 359.089 337.236V337.235ZM94.3588 279.394C94.4718 279.103 94.5288 278.81 94.5288 278.519H94.5298C94.5298 277.8 94.2818 277.251 93.7898 276.87C93.2958 276.488 92.7218 276.298 92.0718 276.298C92.0948 275.915 92.1948 275.577 92.3748 275.285C92.5548 274.993 92.7778 274.74 93.0478 274.527C93.3178 274.313 93.6048 274.134 93.9078 273.988C94.1771 273.858 94.4524 273.74 94.7328 273.636L93.3848 271.648C93.3408 271.67 93.2178 271.728 93.0148 271.815C92.8118 271.904 92.5698 272.023 92.2898 272.167C91.9817 272.329 91.6835 272.51 91.3968 272.707C91.0934 272.909 90.8106 273.14 90.5528 273.397C89.9998 273.947 89.5592 274.599 89.2558 275.317C88.9528 276.037 88.8008 276.825 88.8008 277.677C88.7987 278.112 88.8669 278.544 89.0028 278.957C89.1249 279.339 89.3195 279.694 89.5758 280.002C89.8711 280.319 90.2331 280.567 90.6358 280.727C91.0477 280.895 91.4882 280.98 91.9328 280.979C92.6551 280.989 93.35 280.703 93.8558 280.187C94.0745 279.959 94.2455 279.689 94.3588 279.394ZM86.6928 278.519C86.688 279.141 86.4475 279.738 86.0198 280.189C85.7842 280.431 85.5036 280.625 85.1938 280.76C84.8678 280.906 84.5018 280.98 84.0978 280.98C83.6528 280.982 83.2119 280.896 82.7998 280.728C82.3972 280.567 82.0352 280.319 81.7398 280.002C81.4828 279.694 81.2882 279.339 81.1668 278.957C81.0304 278.544 80.9621 278.112 80.9648 277.677C80.9648 276.825 81.1148 276.037 81.4198 275.317C81.7228 274.599 82.1634 273.946 82.7168 273.397C82.9638 273.149 83.2438 272.92 83.5598 272.706C83.8738 272.494 84.1718 272.313 84.4528 272.166C84.7328 272.022 84.9728 271.904 85.1768 271.816L85.2335 271.791C85.4023 271.714 85.5082 271.667 85.5488 271.646L86.8958 273.634C86.6478 273.724 86.3738 273.842 86.0698 273.987C85.7668 274.134 85.4798 274.313 85.2128 274.525C84.9453 274.737 84.7165 274.994 84.5368 275.284C84.3578 275.576 84.2568 275.914 84.2348 276.296C84.8848 276.296 85.4588 276.486 85.9528 276.869C86.4458 277.251 86.6928 277.799 86.6928 278.519ZM335.858 335.393H332.043L343.924 314.757H347.7L335.858 335.393ZM331.862 336.881C330.626 336.882 329.681 337.861 329.681 339.099C329.681 340.337 330.627 341.279 331.862 341.279C333.094 341.279 334.079 340.335 334.079 339.099C334.079 337.863 333.094 336.881 331.862 336.881ZM306.6 329.466L305.51 331.354C306.345 333.825 309.649 332.445 310.779 330.483L312.594 327.359C313.939 325.069 310.96 323.398 306.6 329.466ZM330.602 334.334C330.384 333.754 329.73 333.171 329.185 333.027L328.93 333.319C327.601 334.879 326.074 336.258 324.388 337.423C324.858 336.012 325.104 334.304 325.371 332.458C325.783 329.599 326.243 326.409 327.656 323.473L324.821 321.946C324.543 322.328 324.205 322.8 323.819 323.339L323.819 323.339L323.819 323.339C322.042 325.823 319.235 329.743 316.429 333.027C316.435 333.037 316.445 333.045 316.45 333.052C316.444 333.049 316.437 333.045 316.43 333.041C316.422 333.035 316.413 333.03 316.405 333.027L316.152 333.319C313.425 336.479 310.775 338.985 309.102 338.985C308.268 338.985 307.468 338.149 307.468 336.442V334.88C310.12 335.207 312.918 333.462 314.698 330.376L315.714 328.633C319.236 322.603 313.497 320.603 309.646 324.129L315.021 314.792H311.242L300.467 333.487C300.259 333.304 300.028 333.15 299.778 333.03L299.522 333.322C296.799 336.482 293.311 338.988 290.659 338.988C288.334 338.988 286.954 337.535 288.698 334.484L292.582 327.727C294.762 323.985 298.614 324.603 296.36 328.527L295.816 329.471H298.906L299.451 328.527C301.485 325.039 299.522 322.423 296.436 322.423C293.385 322.423 290.949 324.023 289.351 326.783L285.633 333.163C285.613 333.151 285.593 333.139 285.573 333.127C285.514 333.091 285.454 333.055 285.4 333.031L285.145 333.323C282.421 336.483 279.77 338.989 278.098 338.989C277.262 338.989 276.792 338.409 277.662 336.919L285.728 322.786H281.948L275.229 334.52C272.356 337.135 270.144 338.588 269.415 338.262C268.539 337.892 269.288 336.646 269.779 335.83C269.817 335.766 269.854 335.705 269.888 335.647L277.262 322.786H273.484L266.146 335.481C265.64 335.942 264.837 336.373 264.112 336.761C263.669 336.999 263.255 337.221 262.956 337.425C263.426 336.013 263.673 334.305 263.94 332.458V332.458L263.94 332.457C264.352 329.6 264.813 326.41 266.225 323.475L263.393 321.948C261.83 324.091 253.11 335.646 249.695 339.641C250.02 340.113 250.567 340.586 251.111 340.949C253.254 338.479 260.449 329.215 261.793 327.435C261.292 328.753 261.05 330.425 260.813 332.063C260.344 335.3 259.894 338.407 257.505 338.407C256.235 338.407 255.725 337.025 255.725 337.025L253.364 338.261C253.364 338.261 254.054 341.311 257.504 341.311C257.838 341.311 258.14 341.281 258.467 341.248L258.468 341.248L258.56 341.239C258.566 341.239 258.573 341.238 258.58 341.236C258.586 341.234 258.592 341.231 258.598 341.228C258.603 341.226 258.608 341.224 258.613 341.221L258.613 341.221C258.624 341.216 258.634 341.21 258.645 341.207L258.65 341.205L258.653 341.205C258.657 341.204 258.662 341.203 258.666 341.203C260.586 340.949 263.244 340.065 265.026 338.833C265.014 340.37 265.942 341.311 267.526 341.311C269.594 341.311 271.921 339.422 273.736 337.679C273.375 339.714 274.571 341.311 276.971 341.311C279.317 341.311 281.93 339.425 284.408 336.948C284.442 339.458 286.376 341.311 289.534 341.311C292.6 341.311 295.648 339.598 298.275 337.295L296.17 340.949H299.986L304.309 333.429V336.443C304.309 339.675 304.926 341.311 307.979 341.311C311.102 341.311 314.7 337.97 317.824 334.336C317.822 334.333 317.819 334.33 317.817 334.326C317.811 334.319 317.805 334.311 317.804 334.302C317.818 334.314 317.835 334.325 317.851 334.336C319.564 332.362 321.115 330.271 322.354 328.602C322.665 328.183 322.956 327.79 323.226 327.432C322.726 328.75 322.484 330.42 322.247 332.058C321.779 335.296 321.329 338.405 318.939 338.405C317.669 338.405 317.159 337.023 317.159 337.023L314.797 338.259C314.797 338.259 315.488 341.309 318.939 341.309C319.266 341.309 319.565 341.28 319.891 341.247L319.995 341.237C320.01 341.237 320.026 341.23 320.042 341.222C320.061 341.212 320.08 341.202 320.1 341.202C323.953 340.69 327.768 337.64 330.601 334.332L330.602 334.334ZM215.828 333.248H216.011L218.771 328.526C221.059 324.601 217.427 322.821 214.774 327.326L212.958 330.414L210.088 335.391C207.835 339.315 212.159 339.895 213.938 336.845L213.975 336.772C213.757 336.41 213.612 335.975 213.612 335.503C213.612 334.265 214.593 333.248 215.828 333.248ZM190.581 347.379C189.781 348.796 188.509 348.579 188.509 347.563C188.509 346.583 189.418 345.457 192.324 344.329L190.581 347.379ZM155.736 338.952C157.298 338.952 159.551 337.244 161.839 333.649L164.78 328.489C166.634 325.073 162.602 324.166 160.567 327.688L155.3 336.881C154.429 338.372 154.901 338.952 155.736 338.952ZM149.785 318.899C150.911 316.972 152.147 316.137 153.2 316.137C154.618 316.137 155.271 317.081 155.271 318.462C155.271 321.986 150.907 329.295 145.099 328.343H144.336L149.785 318.899ZM242.308 333.285L242.562 332.993L242.563 332.994C243.073 333.212 243.726 333.794 243.981 334.305C240.855 337.938 237.261 341.28 234.135 341.28C231.082 341.28 229.957 338.703 231.555 335.904L236.459 327.366C238.095 324.568 235.515 323.625 229.738 330.855L223.962 340.918H220.147L222.687 336.524C221.001 337.454 219.133 337.974 217.753 337.974H216.918C212.68 343.332 205.652 342.129 206.172 336.852C202.92 340.071 199.806 342.03 196.647 343.024L193.741 348.002C191.019 352.652 185.459 351.888 185.459 348.255C185.459 345.423 188.656 343.314 193.779 341.79L195.85 338.23C194.141 339.754 192.072 341.28 190.255 341.28C188.373 341.28 187.414 339.948 187.867 337.87C185.693 339.86 183.46 341.28 181.427 341.28C178.376 341.28 177.25 338.704 178.848 335.904L183.752 327.37C185.387 324.571 182.807 323.628 177.03 330.858L171.254 340.921H167.44L168.832 338.51C166.89 340.159 164.922 341.283 163.112 341.283C161.188 341.283 160.024 340.268 159.844 338.814C158.027 340.303 156.138 341.283 154.612 341.283C151.937 341.283 150.741 339.302 151.564 336.928L151.34 337.141L151.339 337.141C148.85 339.51 146.987 341.283 142.883 341.283C137.543 341.283 135.982 336.199 138.633 331.621L139.758 329.657C136.708 328.059 135 325.152 135 322.139C135 319.593 136.197 317.017 138.887 315.089L140.122 317.307C138.488 318.577 137.688 320.321 137.688 322.064C137.688 324.172 138.852 326.279 141.068 327.442L146.954 317.305C148.66 314.327 151.131 312.873 153.202 312.873C155.998 312.873 158.215 315.088 158.215 318.503C158.215 319.993 157.742 321.736 156.689 323.589C153.71 328.784 149.132 330.856 145.099 330.856C144.338 330.856 143.647 330.779 142.957 330.672L141.902 332.524C139.652 336.376 141.213 338.955 143.792 338.955C147.467 338.955 149.551 336.538 152.205 333.459L152.352 333.288L152.606 332.996C152.877 333.069 153.174 333.251 153.434 333.484L157.337 326.748C158.933 323.985 161.769 322.388 163.802 322.388C166.273 322.388 167.908 324.604 167.763 326.202H169.906L163.802 336.882C162.931 338.374 163.403 338.954 164.238 338.954C165.911 338.954 168.563 336.447 171.286 333.287L171.54 332.995C171.665 333.053 171.785 333.12 171.899 333.197L177.937 322.752H181.717L180.3 325.221C182.188 323.259 183.896 322.387 185.531 322.387C187.638 322.387 189.2 324.459 187.565 327.329L182.116 336.882C181.245 338.374 181.717 338.954 182.552 338.954C184.224 338.954 186.875 336.447 189.6 333.287L189.854 332.995C189.969 333.049 190.079 333.111 190.185 333.182L196.213 322.752H199.991L192.616 335.612L192.568 335.692L192.505 335.798C192.015 336.616 191.269 337.859 192.144 338.228C192.87 338.554 195.123 337.065 198.03 334.378L204.713 322.752H208.492L198.137 340.482C201.115 339.207 203.767 336.882 206.892 333.287L207.146 332.996C207.265 333.05 207.379 333.114 207.488 333.186L209.108 330.416L210.96 327.183C213.141 323.405 215.392 322.243 218.299 322.243C221.861 322.243 223.967 325.982 221.679 329.944L218.119 336.084C220.008 336.047 222.116 335.137 223.822 333.285L224.077 332.993C224.247 333.073 224.408 333.17 224.559 333.283L230.647 322.75H234.426L233.009 325.219C234.899 323.257 236.604 322.386 238.24 322.386C240.345 322.386 241.911 324.457 240.275 327.327L234.825 336.88C233.954 338.372 234.425 338.952 235.261 338.952C236.933 338.952 239.586 336.445 242.308 333.285ZM361.193 297.421C358.903 301.162 356.578 302.942 354.981 302.942C354.146 302.942 353.674 302.362 354.544 300.872L359.811 291.679C361.846 288.155 365.878 289.064 364.025 292.479H364.06L361.193 297.421ZM318.902 302.942C320.463 302.942 322.716 301.234 325.006 297.64L327.947 292.479C329.799 289.064 325.767 288.155 323.733 291.679L318.465 300.872C317.595 302.362 318.066 302.942 318.902 302.942ZM285.089 311.37C284.292 312.787 283.019 312.57 283.019 311.554C283.019 310.573 283.891 309.447 286.798 308.32L285.089 311.37ZM296.534 280.129C295.479 280.129 294.244 280.963 293.117 282.889L287.669 292.334H288.432C298.059 294.564 302.528 280.129 296.534 280.129ZM370.781 296.986L370.526 297.276C367.806 300.436 365.152 302.943 363.479 302.943C362.644 302.943 362.172 302.363 363.042 300.872L375.831 278.748H372.052L366.495 288.339C365.841 287.285 364.605 286.377 363.042 286.377C361.007 286.377 358.175 287.976 356.576 290.736L352.878 297.116C352.865 297.109 352.852 297.101 352.839 297.093L352.814 297.078C352.756 297.043 352.698 297.008 352.644 296.984L352.389 297.276C349.666 300.436 347.389 302.942 345.717 302.942C344.88 302.942 344.41 302.362 345.279 300.872L350.729 291.317C352.366 288.447 350.801 286.375 348.695 286.375C347.059 286.375 345.355 287.246 343.463 289.21L344.88 286.74H341.101L335.064 297.187C334.949 297.11 334.829 297.042 334.704 296.984L334.448 297.276C331.725 300.436 329.074 302.942 327.402 302.942C326.567 302.942 326.096 302.362 326.966 300.872L333.069 290.19H330.925C331.071 288.592 329.437 286.375 326.965 286.375C324.93 286.375 322.095 287.974 320.497 290.733L316.845 297.039L316.639 297.273C313.917 300.432 310.889 302.938 309.219 302.938C308.382 302.938 307.912 302.358 308.782 300.868L312.56 294.257C313.867 291.967 313.249 290.624 312.015 289.134L309.909 286.59C309.364 285.9 309.364 285.137 310.127 284.41L308.165 282.267C306.021 284.194 305.84 286.336 307.183 288.08L307.512 288.516L307.378 288.705L307.377 288.706C305.72 291.048 303.522 294.153 301.115 296.981C301.156 297.04 301.201 297.098 301.249 297.156C301.289 297.204 301.33 297.253 301.373 297.301C298.26 300.881 295.614 303.196 292.643 304.463L297.438 296.253H293.66L293.261 296.908C291.263 300.432 288.973 302.939 286.031 302.939C283.451 302.939 282.981 300.36 285.231 296.509L286.286 294.657C286.994 294.774 287.71 294.834 288.428 294.838C301.871 294.838 308.374 276.856 296.532 276.856C294.46 276.856 291.988 278.31 290.282 281.288L284.397 291.423C282.181 290.262 281.019 288.155 281.019 286.048C281.019 284.305 281.819 282.56 283.451 281.29L282.218 279.073C279.528 280.999 278.33 283.577 278.33 286.12C278.33 289.136 280.039 292.042 283.09 293.64L281.963 295.603C279.311 300.181 279.783 305.266 285.125 305.266C286.723 305.266 288.066 304.794 289.23 304.066L288.247 305.776C283.127 307.336 279.965 309.407 279.965 312.241C279.965 315.873 285.525 316.637 288.247 311.987L291.154 307.01C295.079 305.775 298.93 303.087 303.072 298.291C303.005 298.165 302.926 298.047 302.836 297.936C304.514 295.965 305.938 294.062 308.786 290.19L309.293 290.809C309.766 291.425 309.947 292.189 309.511 292.953L305.514 299.89C303.915 302.685 305.042 305.264 308.094 305.264C309.993 305.264 312.442 304.025 314.479 302.24C314.435 303.978 315.623 305.264 317.778 305.264C319.303 305.264 321.193 304.284 323.008 302.794C323.191 304.248 324.355 305.264 326.278 305.264C328.088 305.264 330.055 304.139 331.998 302.49L330.606 304.902H334.419L340.196 294.837C345.973 287.608 348.553 288.553 346.916 291.35L342.013 299.888C340.416 302.686 341.54 305.264 344.591 305.264C346.601 305.264 348.427 303.88 350.573 301.931C350.373 303.824 351.577 305.264 353.855 305.264C355.38 305.264 357.269 304.284 359.087 302.794C359.269 304.249 360.432 305.264 362.356 305.264C365.481 305.264 369.076 301.923 372.201 298.288C371.945 297.784 371.292 297.203 370.781 296.986ZM262.28 292.48C264.534 288.556 260.681 287.939 258.501 291.681L256.067 295.931C257.483 296.439 259.918 296.513 261.735 293.424L262.28 292.48ZM255.45 305.268C259.737 305.268 263.99 301.927 267.112 298.293C266.859 297.783 266.204 297.203 265.695 296.985L265.442 297.277C262.716 300.437 259.229 302.943 256.575 302.943C254.25 302.943 252.87 301.49 254.613 298.438L254.976 297.785C257.411 298.801 261.988 298.33 264.822 293.425L265.367 292.481C267.402 288.992 265.44 286.377 262.351 286.377C259.301 286.377 256.867 287.975 255.268 290.736L251.589 297.049C251.551 297.029 251.513 297.001 251.477 296.985L251.222 297.277C248.498 300.437 245.847 302.943 244.175 302.943C243.339 302.943 242.869 302.363 243.738 300.872L249.188 291.317C250.823 288.447 249.26 286.375 247.152 286.375C245.517 286.375 243.773 287.284 241.886 289.246L247.916 278.746H244.138L233.482 297.236C233.347 297.138 233.202 297.053 233.05 296.984L232.795 297.275C230.07 300.436 227.419 302.942 225.747 302.942C224.912 302.942 224.44 302.362 225.31 300.872L233.412 286.738H236.502L237.592 284.921H234.467L238.027 278.746H234.249L230.689 284.921H227.274L226.184 286.738H229.634L222.041 299.891C220.443 302.69 221.569 305.268 224.62 305.268C226.498 305.268 228.546 304.055 230.56 302.304L229.061 304.904H232.876L238.616 294.912C244.429 287.61 247.009 288.555 245.374 291.352L240.469 299.89C238.871 302.688 239.997 305.266 243.049 305.266C245.345 305.266 247.895 303.461 250.325 301.061C250.435 303.492 252.358 305.268 255.45 305.268ZM131.755 292.479C134.009 288.555 130.159 287.938 127.979 291.68L125.544 295.929C126.96 296.438 129.396 296.511 131.211 293.423L131.755 292.479ZM151.098 300.871L156.366 291.68C158.4 288.154 162.433 289.063 160.579 292.479L157.637 297.638C155.349 301.233 153.094 302.942 151.533 302.942C150.699 302.942 150.226 302.361 151.098 300.872V300.871ZM208.858 292.479C211.112 288.555 207.262 287.938 205.082 291.68L202.647 295.929C204.063 296.437 206.498 296.511 208.313 293.423L208.858 292.479ZM147.274 301.206C146.647 303.446 147.844 305.266 150.408 305.266C151.933 305.266 153.823 304.286 155.638 302.797C155.821 304.25 156.984 305.267 158.908 305.267C160.921 305.267 163.126 303.877 165.277 301.921C164.859 303.963 165.816 305.267 167.677 305.267C169.75 305.267 172.075 303.377 173.89 301.633C173.526 303.669 174.727 305.267 177.124 305.267C180.249 305.267 183.844 301.925 186.969 298.291C186.954 298.262 186.934 298.232 186.913 298.203C186.897 298.182 186.882 298.161 186.869 298.14C188.509 296.232 189.997 294.233 191.199 292.618L191.199 292.618L191.199 292.617L191.199 292.617L191.2 292.616C191.528 292.175 191.834 291.764 192.117 291.39C191.616 292.708 191.374 294.379 191.137 296.018V296.018C190.668 299.254 190.218 302.362 187.829 302.362C186.559 302.362 186.049 300.98 186.049 300.98L183.686 302.215C183.686 302.215 184.376 305.267 187.828 305.267C188.152 305.267 188.446 305.238 188.765 305.206L188.882 305.194C188.9 305.194 188.919 305.185 188.937 305.176C188.954 305.168 188.972 305.159 188.99 305.159C191.766 304.792 194.519 303.103 196.903 300.95C196.961 303.436 198.889 305.267 202.028 305.267C206.315 305.267 210.566 301.926 213.69 298.291C213.436 297.781 212.782 297.201 212.274 296.983L212.02 297.275C209.295 300.435 205.807 302.942 203.157 302.942C200.831 302.942 199.45 301.488 201.194 298.437L201.558 297.783C203.99 298.799 208.568 298.328 211.403 293.423L211.948 292.48C213.982 288.991 212.02 286.376 208.933 286.376C205.883 286.376 203.446 287.974 201.85 290.734L198.18 297.028C198.164 297.023 198.148 297.014 198.132 297.006C198.113 296.997 198.094 296.987 198.076 296.982L197.822 297.273C196.493 298.833 194.966 300.214 193.28 301.379C193.751 299.967 193.997 298.259 194.264 296.412V296.412L194.264 296.412C194.677 293.554 195.138 290.364 196.55 287.428L193.717 285.902C193.433 286.292 193.087 286.774 192.692 287.326L192.692 287.326C190.913 289.811 188.119 293.713 185.324 296.982C185.335 296.997 185.347 297.013 185.359 297.028C185.367 297.037 185.374 297.047 185.382 297.056L185.385 297.059L185.386 297.06C185.402 297.08 185.418 297.1 185.434 297.12L185.299 297.273C182.575 300.433 179.923 302.94 178.251 302.94C177.416 302.94 176.944 302.36 177.815 300.87L185.88 286.735H182.101L175.381 298.469C172.511 301.085 170.296 302.538 169.567 302.211C168.691 301.842 169.442 300.593 169.933 299.776L169.934 299.774L169.943 299.759C169.963 299.726 169.983 299.693 170.002 299.661C170.015 299.639 170.028 299.617 170.041 299.596L177.414 286.736H173.636L167.623 297.141L167.589 297.12C167.502 297.067 167.417 297.015 167.336 296.98L167.082 297.27C164.357 300.43 161.706 302.937 160.034 302.937C159.199 302.937 158.727 302.357 159.598 300.867L165.701 290.185H163.557C163.703 288.587 162.069 286.369 159.597 286.369C157.563 286.369 154.729 287.969 153.131 290.729L149.301 297.341C149.124 297.197 148.931 297.075 148.725 296.978L148.471 297.268C145.747 300.428 142.613 302.935 139.961 302.935C137.637 302.935 136.255 301.482 137.998 298.431L141.885 291.675C144.065 287.933 147.916 288.55 145.662 292.473L145.117 293.418H148.207L148.751 292.473C150.785 288.986 148.824 286.369 145.737 286.369C142.685 286.369 140.603 287.969 139.007 290.729L135.251 297.172C135.141 297.098 135.025 297.033 134.904 296.978L134.65 297.268C131.926 300.428 128.703 302.935 126.052 302.935C123.726 302.935 122.345 301.482 124.089 298.431L124.452 297.777C126.886 298.795 131.464 298.322 134.298 293.419L134.843 292.473C136.877 288.987 134.915 286.37 131.827 286.37C128.777 286.37 126.341 287.968 124.744 290.73L120.784 297.522C118.421 301.555 120.457 305.26 124.924 305.26C128.253 305.26 130.937 303.245 133.712 300.643C133.614 303.28 135.57 305.26 138.833 305.26C141.921 305.266 144.633 303.532 147.274 301.206ZM113.453 282.015L110.402 287.246V287.247C114.253 287.174 116.398 286.338 117.848 283.614C119.738 280.053 116.213 277.258 113.453 282.015ZM106.334 304.466C104.081 304.466 102.301 303.958 100.884 303.16C101.538 302.396 102.191 301.451 102.774 300.471L109.13 289.463L110.147 289.571C119.013 291.426 115.488 304.466 106.334 304.466ZM115.671 288.991C123.299 286.41 123.879 276.856 116.36 276.856C114.289 276.856 111.819 278.309 110.112 281.288L99.9388 298.872C99.519 299.627 99.0331 300.344 98.4868 301.013C95.8708 297.418 96.6338 292.042 100.303 289.679L98.7758 287.753C90.8558 292.803 93.1818 307.37 106.406 307.37C117.705 307.372 122.935 293.824 115.671 288.991Z" fill="white"/>
</svg>
