<svg width="17" height="17" viewBox="0 0 17 17" fill="none" xmlns="http://www.w3.org/2000/svg">
<path d="M10.949 1.14397C12.634 0.647967 13.933 1.41397 14.526 2.32297C15.199 2.09197 15.857 1.84197 16.537 1.61497C16.5239 2.30133 16.2107 2.94749 15.68 3.38297C16.365 3.55297 16.984 2.89197 16.984 2.89197C16.815 3.89197 15.978 4.67997 15.421 4.91597C15.19 11.666 12.246 16.133 5.344 15.998H4.898C4.488 15.998 0.734 15.538 0 14.111C2.271 14.307 3.893 13.689 4.693 12.934C3.733 12.634 2.014 12.457 1.714 9.98397C2.063 10.09 2.278 10.212 2.904 10.103C1.704 9.24697 0.373 8.52997 0.447 6.32997C0.732 6.65797 1.514 6.86597 1.787 6.80197C1.084 6.56097 -0.183 3.44197 0.893 1.84997C2.711 3.70397 4.628 5.45597 8.045 5.62297C8.253 3.32997 9.182 1.79297 10.949 1.14397Z" fill="#ffffff"/>
</svg>
