<svg width="138" height="70" viewBox="0 0 138 70" fill="none" xmlns="http://www.w3.org/2000/svg">
<path d="M138 0H0L59.51 65.68C64.73 71.441 73.27 71.441 78.49 65.68L138 0Z" fill="#81B3D3"/>
<path d="M36.687 0.457031L68.835 38.336L100.855 0.686031L36.687 0.457031Z" fill="#23A9E1"/>
<path fill-rule="evenodd" clip-rule="evenodd" d="M78.42 14.719H61.1C60.8194 14.5918 60.4384 14.4492 60.012 14.2896C57.8142 13.467 54.4115 12.1934 57.347 10.252C58.8166 9.31862 59.8717 9.46839 60.869 9.60996C61.9583 9.76459 62.9786 9.90944 64.395 8.62203C66.9745 6.28131 70.6699 9.90953 71.9353 11.152C72.196 11.408 72.3536 11.5627 72.377 11.543C73.6265 10.5022 75.6307 12.3044 77.1108 13.6353C77.6301 14.1023 78.0849 14.5112 78.42 14.719ZM87.83 11.241L77.97 11.295C81.866 6.79503 83.617 7.27703 87.83 11.241Z" fill="white"/>
<path fill-rule="evenodd" clip-rule="evenodd" d="M36 0.001H69.055L102 0V15.04L69.056 54.245L68.836 54.52L36 14.583V0.001ZM40.011 1.153V3.06L38.407 1.154L40.011 1.153ZM97.622 1.154V3.588L99.702 1.154H97.622ZM48.467 13.081L48.377 12.998L49.1963 13.9714L49.196 13.972L68.834 37.302L49.1963 13.9714C51.8513 9.42894 55.6532 8.74921 59.743 13.664C60.397 14.4815 60.7938 15.2248 61.112 15.8208C61.5626 16.6649 61.8556 17.2137 62.498 17.26C63.6367 17.3414 64.1967 16.5858 64.7536 15.8344C65.1958 15.2376 65.6362 14.6434 66.363 14.473C67.7842 14.139 68.4388 14.4977 69.0817 14.85C69.2856 14.9618 69.4884 15.0729 69.714 15.161C69.9962 15.2714 70.2599 15.3412 70.504 15.4058C71.131 15.5718 71.6286 15.7035 71.977 16.401C72.0931 16.633 72.1901 16.8652 72.2848 17.0919C72.7047 18.0974 73.0797 18.9953 74.879 19.294C77.4273 19.718 79.5817 18.7657 81.8233 17.7747C83.4303 17.0644 85.0821 16.3342 86.956 16.077L89.471 13.132C89.366 13.022 87.004 10.592 83.339 8.182C79.91 5.927 74.611 3.233 68.833 3.205C63.042 3.173 57.817 5.858 54.45 8.117C50.9069 10.4943 48.6345 12.9034 48.4757 13.0718L48.467 13.081ZM97.114 1.153H93.887V7.96L97.114 4.183V1.153ZM89.832 12.61V1.154H93.378V8.558L89.878 12.656C89.8632 12.6402 89.8478 12.6248 89.832 12.61ZM89.324 12.115V2.221L85.767 9.129C87.0081 10.0564 88.1956 11.0533 89.324 12.115ZM85.159 1.863V8.682C84.696 8.348 84.209 8.009 83.694 7.67C83.03 7.232 82.294 6.778 81.5 6.33L85.159 1.863ZM80.847 5.97V1.73L77.727 4.496C78.7921 4.9323 79.8336 5.42431 80.847 5.97ZM81.355 1.154H85.082L81.355 5.704V1.154ZM89.3 1.154H85.667L85.666 8.214L89.3 1.154ZM76.87 1.154H80.73L77.2 4.282C77.1346 4.2568 77.0681 4.23268 77.0017 4.20857C76.9573 4.19248 76.913 4.1764 76.869 4.16V1.154H76.87ZM76.361 3.974V1.571L73.261 3.087C74.3117 3.31806 75.3471 3.6143 76.361 3.974ZM72.158 1.613V2.873C71.4364 2.75191 70.7092 2.6678 69.979 2.621L72.158 1.613ZM67.64 2.616L65.392 1.574V2.869C66.128 2.746 66.878 2.659 67.64 2.616ZM61.272 1.571L64.337 3.069C63.277 3.298 62.254 3.597 61.271 3.944L61.272 1.571ZM61.578 1.154L64.882 2.771L64.883 1.154H61.578ZM68.448 2.429L65.694 1.154H68.448V2.429ZM71.938 1.154H69.057V2.488L71.938 1.154ZM72.816 1.154H76.056L72.816 2.738V1.154ZM56.895 1.155L60.405 4.265L60.764 4.13V1.155H56.895ZM56.787 1.738L59.88 4.479C58.8227 4.91873 57.7902 5.4158 56.787 5.968V1.738ZM56.115 6.346L52.475 1.866V8.756C53.6383 7.87955 54.8539 7.07473 56.115 6.346ZM48.31 2.224L51.896 9.198C50.6354 10.1717 49.4377 11.2241 48.31 12.349V2.224ZM48.332 1.154L51.966 8.224V1.154H48.332ZM56.278 5.739L52.552 1.154H56.278V5.739ZM40.52 3.664L43.747 7.497V1.154H40.52V3.664ZM44.255 1.154H47.8V12.314L44.254 8.102L44.255 1.154Z" fill="#491213"/>
<path d="M66.227 46.026L68.837 41.806L71.435 46.026L68.837 50.256L66.227 46.026Z" fill="#23A9E1"/>
<path fill-rule="evenodd" clip-rule="evenodd" d="M52.88 11.718C51.097 12.272 49.999 14.73 52.623 14.839H52.624C52.516 13.171 52.99 12.465 53.136 14.491C53.5687 14.471 54.0179 14.4591 54.4747 14.4469C56.1166 14.4034 57.8555 14.3572 59.27 13.923C58.13 12.832 54.575 11.19 52.88 11.718ZM58.793 22.985C53.197 22.939 56.98 14.337 58.884 14.857C61.074 15.553 60.828 23.051 58.793 22.985ZM61.333 20.13C61.223 22.102 62.211 21.799 62.756 20.175V20.174C62.7593 20.5328 62.7199 20.8944 62.6814 21.2468C62.5793 22.1831 62.4841 23.0555 63.215 23.644C64.539 24.713 67.08 23.247 67.911 22.152C66.314 21.532 68.259 17.765 69.457 17.191C68.225 19.772 66.805 23.617 70.025 23.617C68.393 23.617 71.327 16.871 71.343 16.925C71.1569 16.3081 70.6943 16.2415 70.1421 16.1621C69.7329 16.1032 69.2746 16.0372 68.843 15.735C67.2609 14.6278 66.4343 15.5809 65.6311 16.507C65.2809 16.9108 64.9351 17.3095 64.533 17.53C64.0529 17.7928 63.5826 17.9267 63.1565 18.0481C62.1706 18.3288 61.421 18.5422 61.333 20.13ZM74.218 30.556C70.785 28.536 71.654 27.033 74.448 25.631C74.8082 25.4502 75.2795 25.1532 75.806 24.8216C77.4161 23.8072 79.5418 22.4681 80.581 23.132L74.218 30.556ZM70.6742 33.0045L70.6739 33.0045C68.9673 32.8994 67.1802 32.7893 65.622 33.128C66.829 33.43 69.773 34.293 67.032 35.022C68.015 36.429 69.61 36.339 70.656 35.104C70.4001 34.9782 70.2149 34.8349 70.0312 34.6928L70.0311 34.6928C69.9098 34.5989 69.789 34.5055 69.649 34.418C70.734 34.222 71.749 33.596 71.884 33.073C71.4882 33.0546 71.0835 33.0297 70.6742 33.0045ZM70.373 31.499C71.242 30.659 72.186 30.703 73.119 31.499H73.118C72.644 32.881 64.059 32.393 62.994 29.779C63.5184 29.8582 64.2011 29.8662 64.9431 29.8749C67.0017 29.8989 69.5167 29.9282 70.373 31.499ZM66.345 29.348C65.8943 29.2083 65.136 29.1189 64.367 29.0283C62.4656 28.8041 60.4991 28.5722 62.957 27.554C64.022 27.113 69.55 27.617 66.345 29.348ZM68.257 26.318C67.78 25.241 68.622 23.958 69.997 24.89C71.196 25.703 69.445 26.907 68.257 26.318ZM65.421 26.409C63.156 27.088 60.148 25.625 63.791 24.889C66.052 24.433 68.457 25.395 65.421 26.409Z" fill="#DC6243"/>
<path d="M71.774 25.832C68.866 22.845 76.116 23.12 77.284 22.069C78.134 22.353 84.274 16.692 85.769 17.044C84.695 18.304 82.381 22.326 80.722 22.326C79.447 22.326 78.157 22.136 77.17 23.044C75.726 24.374 73.333 25.05 71.774 25.832Z" fill="#F49774"/>
<path d="M72.727 22.18C71.135 23.036 69.629 19.644 72.378 19.974C74.204 20.194 76.054 19.82 77.798 20.121C76.547 21.608 74.742 22.427 72.727 22.18Z" fill="#F4B1A4"/>
<path fill-rule="evenodd" clip-rule="evenodd" d="M39.265 14.4829C39.626 15.7019 40.849 16.1489 41.996 15.8089C42.0322 15.8493 42.0549 15.9115 42.0762 15.9699L42.0762 15.9699C42.086 15.9969 42.0956 16.0231 42.106 16.0459C42.0064 16.0843 41.8223 16.1636 41.6023 16.2584L41.6022 16.2584L41.6022 16.2584L41.6022 16.2584L41.6022 16.2584C40.9896 16.5224 40.0981 16.9066 39.973 16.8609C39.7561 16.4283 39.4148 16.1085 39.0713 15.7868C38.8321 15.5627 38.5919 15.3377 38.392 15.0729C37.826 14.3249 37.495 13.4219 37.584 12.4759C37.726 10.7309 39.482 8.80695 41.346 9.07095C42.266 9.20395 43.034 9.85795 43.606 10.5539C43.7685 10.7433 43.9097 10.9418 44.0491 11.1376C44.3457 11.5543 44.6337 11.9591 45.099 12.2379C44.541 12.9499 43.983 13.6599 43.423 14.3709C43.0925 14.2248 43.193 13.9969 43.3028 13.7478C43.3336 13.6781 43.3651 13.6067 43.388 13.5349C43.551 13.0179 43.673 12.4299 43.449 11.9099C42.939 10.7359 41.544 10.6959 40.609 11.3659C39.663 12.0439 38.912 13.2919 39.265 14.4829ZM47.69 16.4039C47.8067 16.3787 47.8955 16.4207 47.9743 16.4579C48.0894 16.5123 48.1833 16.5566 48.312 16.3679L46.722 14.4739C46.481 14.1869 46.176 13.8789 46.263 14.4859C46.321 14.8949 42.294 18.1629 42.048 18.2639C41.9132 18.3196 41.8026 18.2758 41.7018 18.2359C41.571 18.184 41.4568 18.1388 41.328 18.3269C41.5289 18.5654 41.7294 18.8041 41.9299 19.0428L41.9303 19.0433L41.9317 19.045L41.9323 19.0457L41.9331 19.0466L41.9332 19.0468L41.9333 19.0469L41.9334 19.047L41.9335 19.0472L41.9337 19.0473L41.9338 19.0474L41.9339 19.0476L41.9343 19.0481L41.9344 19.0482L41.9345 19.0483L41.9346 19.0485L41.9348 19.0486L41.9349 19.0487C42.2069 19.3725 42.479 19.6964 42.752 20.0199C42.8035 20.0811 42.8539 20.1441 42.9044 20.2072C43.0108 20.34 43.1177 20.4736 43.237 20.5929C43.4258 20.7818 43.39 20.3246 43.3823 20.2272L43.3823 20.2272L43.3823 20.2272C43.3811 20.2111 43.3806 20.2049 43.382 20.2129C43.3286 19.9167 43.6408 19.6601 43.8604 19.4796L43.8604 19.4795C43.8877 19.4571 43.9135 19.4359 43.937 19.4159C44.941 18.5319 47.442 16.4369 47.69 16.4039ZM51.113 20.9349C51.446 21.3359 51.691 21.7689 51.636 22.3089C51.6231 22.4367 51.5485 22.5941 51.4729 22.7538C51.3265 23.0629 51.1762 23.3804 51.461 23.5069L52.916 21.6669C52.526 21.5689 49.434 17.8709 49.384 17.4659L47.333 18.5919C47.403 18.875 47.7464 18.7858 48.0762 18.7001C48.2462 18.656 48.4125 18.6128 48.536 18.6219C49.074 18.6599 49.462 18.9849 49.804 19.3689C49.6985 19.4575 49.5786 19.5583 49.4479 19.6683L49.4436 19.6719L49.4431 19.6724L49.443 19.6724L49.4429 19.6725C48.1852 20.7305 45.9265 22.6305 45.666 22.6739C45.6181 22.6815 45.5255 22.642 45.4224 22.5981C45.2117 22.5083 44.9574 22.3999 44.952 22.6369C44.9491 22.7623 45.2509 23.0609 45.4523 23.2601L45.4523 23.2601L45.4524 23.2602C45.5242 23.3312 45.5832 23.3896 45.611 23.4229L47.058 25.1449C47.2779 25.0446 47.235 24.9115 47.1852 24.7569C47.1441 24.6297 47.0984 24.4879 47.191 24.3379C47.3101 24.145 49.2458 22.5119 50.409 21.5305L50.409 21.5305L50.4091 21.5305L50.4097 21.5299C50.7111 21.2757 50.9605 21.0652 51.113 20.9349ZM64.9615 36.5156L64.9615 36.5156L64.9614 36.5154C64.7668 36.2636 64.6168 36.0696 64.539 35.9769L64.326 35.7239C64.319 35.7139 64.141 35.8689 64.166 35.8479C64.1126 35.8928 64.1297 35.9794 64.1492 36.0782C64.1705 36.1866 64.1948 36.3096 64.132 36.4079C63.617 37.2139 60.394 39.6439 60.227 39.7599C60.0532 39.8806 59.871 39.8608 59.7053 39.8427C59.5278 39.8234 59.3692 39.8061 59.26 39.9659C59.3991 40.1309 59.6154 40.4016 59.8547 40.7011L59.8548 40.7011C60.419 41.4073 61.1112 42.2734 61.22 42.2909C61.437 42.3258 61.3979 42.0541 61.3681 41.8462C61.3551 41.7561 61.3439 41.6779 61.356 41.6419C61.4312 41.4164 62.8751 40.2125 63.5418 39.6565L63.66 39.5579C63.8457 39.402 64.0394 39.7121 64.1731 39.926L64.1731 39.926C64.1963 39.9632 64.2178 39.9975 64.237 40.0259C64.449 40.3409 64.544 40.6759 64.43 41.0449C64.4077 41.1163 64.3576 41.1979 64.3061 41.2818C64.1844 41.4802 64.0551 41.691 64.268 41.8069C64.4389 41.6072 64.7415 41.2542 65.0455 40.8996L65.052 40.8919L65.0552 40.8881L65.06 40.8826C65.4663 40.4086 65.8714 39.936 65.964 39.8269C66.0849 39.6869 65.8281 39.7408 65.71 39.7656L65.71 39.7656L65.7099 39.7657C65.6679 39.7745 65.6435 39.7796 65.66 39.7709C65.42 39.8949 65.194 39.9239 64.97 39.7529C64.907 39.7059 64.263 39.0509 64.327 38.9959C64.3925 38.941 64.4615 38.8775 64.5334 38.8113C64.7685 38.5949 65.0345 38.3501 65.311 38.2819C65.871 38.1439 66.338 39.2659 66.421 39.6639C66.499 40.0389 66.488 40.4339 66.371 40.7999C66.3509 40.863 66.321 40.9229 66.2926 40.9797C66.208 41.1488 66.1374 41.2901 66.383 41.4039L67.766 39.5079C67.6757 39.5126 67.586 39.4907 67.508 39.4449C66.9243 39.055 65.6574 37.4159 64.9615 36.5156ZM56.304 31.3169C56.8592 30.8446 57.5533 30.5661 58.281 30.5239C59.439 30.4579 60.613 30.9879 61.371 31.9979C62.483 33.4819 62.301 35.5589 60.871 36.7639C59.186 37.9649 57.104 37.7719 55.812 36.0699C54.688 34.5919 54.874 32.5199 56.304 31.3169ZM59.471 31.9099C60.42 31.8019 60.974 32.7089 60.57 33.6779C60.15 34.6579 59.14 35.6669 58.146 36.0579C56.966 36.5229 56.135 35.5209 56.615 34.4009C57.037 33.4169 58.045 32.4179 59.041 32.0209C59.191 31.9619 59.335 31.9259 59.471 31.9109V31.9099ZM56.9743 27.3708C56.8816 27.3321 56.7855 27.292 56.688 27.2799V27.2789C55.9923 27.1958 55.2093 27.3412 54.4705 27.4783H54.4705L54.4705 27.4783C54.1877 27.5308 53.9114 27.5821 53.649 27.6189C53.002 27.7099 51.477 29.1949 51.379 29.4749C51.3685 29.5138 51.3897 29.6014 51.414 29.7024C51.4687 29.9289 51.5395 30.2225 51.305 30.1809C51.2258 30.1661 51.0359 29.9081 50.9094 29.736L50.9093 29.736L50.9092 29.7358C50.8649 29.6756 50.8283 29.6259 50.807 29.6009L49.19 27.6809C49.3333 27.478 49.4542 27.547 49.5938 27.6267C49.7046 27.69 49.8271 27.7599 49.982 27.7059C50.2482 27.6125 51.1602 26.8352 51.5918 26.4674L51.5922 26.467L51.5944 26.4652C51.6513 26.4167 51.6997 26.3755 51.737 26.3439C52.2908 25.8781 52.7777 24.1709 52.9369 23.6126C52.9623 23.5237 52.9793 23.464 52.987 23.4429C53.048 23.2729 53.069 22.2979 53.045 22.3179C53.2556 22.1443 53.4 22.3574 53.5464 22.5735C53.5905 22.6385 53.6347 22.7039 53.681 22.7589L55.461 24.8709C55.3288 25.0608 55.2068 25.0053 55.072 24.9439C54.9428 24.8851 54.8018 24.821 54.629 24.9629C54.4704 25.0939 54.0892 26.1921 53.9162 26.6903L53.877 26.8029C53.9153 26.7962 53.9636 26.7879 54.0199 26.7783L54.02 26.7783C54.5525 26.6875 55.7961 26.4754 55.939 26.2249C56.0064 26.1066 55.967 26.0053 55.9317 25.9145C55.8853 25.7952 55.8458 25.6938 56.065 25.5949L57.512 27.3069C57.3596 27.5318 57.1746 27.4545 56.9743 27.3708ZM80.927 34.0489C81.051 34.4699 81.121 34.9139 81.067 35.3539C80.997 35.9199 80.431 37.2519 79.656 36.8729C79.1216 36.6107 78.6342 36.1625 78.1677 35.7335C77.9707 35.5524 77.7775 35.3748 77.586 35.2159C78.106 34.6079 78.564 34.0809 79.439 34.3759C79.679 34.4559 79.885 34.3519 79.633 34.2059C79.5831 34.1769 79.4791 34.1128 79.3429 34.0288C78.7618 33.6707 77.593 32.9503 77.516 33.0369C77.4365 33.1288 77.5001 33.2536 77.5744 33.3995C77.6636 33.5744 77.7681 33.7796 77.659 33.9939C77.5442 34.2189 77.3693 34.4198 77.199 34.6152C77.1498 34.6718 77.1009 34.7279 77.054 34.7839C76.9858 34.7264 76.9108 34.6682 76.8343 34.609L76.8341 34.6088L76.834 34.6087C76.3872 34.2623 75.8884 33.8757 76.369 33.3199C76.721 32.8919 77.18 32.5599 77.73 32.4499C77.8595 32.4236 78.0457 32.4469 78.2374 32.471C78.5907 32.5153 78.9627 32.5619 79.032 32.3039C78.609 32.0999 78.186 31.897 77.763 31.6941C77.481 31.5588 77.199 31.4235 76.917 31.2879C77.0094 31.7056 75.5517 33.3469 74.711 34.2934C74.505 34.5254 74.336 34.7157 74.236 34.8359C74.2166 34.859 74.1781 34.8971 74.1317 34.9429C74.001 35.0721 73.808 35.2629 73.805 35.3529C73.7996 35.6047 74.1345 35.4513 74.2156 35.4142L74.2157 35.4142C74.2241 35.4103 74.2298 35.4077 74.232 35.4069C74.547 35.2909 78.656 38.7239 78.758 38.9589C78.7887 39.045 78.7582 39.133 78.7306 39.2127C78.6998 39.3016 78.6726 39.3802 78.738 39.4339C78.7377 39.4336 78.7378 39.4337 78.7384 39.4343L78.7409 39.4366C78.7623 39.4563 78.8878 39.5719 78.903 39.5539C78.9454 39.503 79.0561 39.3601 79.2135 39.1569L79.2135 39.1568L79.2136 39.1568C79.9956 38.1472 81.9317 35.6478 82.392 35.5179C81.875 34.7303 81.3627 33.9396 80.855 33.1459C80.5683 33.2717 80.7035 33.5543 80.8253 33.8089C80.8662 33.8944 80.9056 33.9768 80.927 34.0489ZM73.2113 39.2409C73.9324 38.7948 75.7731 37.6562 76.927 38.4009C78.059 39.3429 77.812 40.8809 77.059 41.9809C76.698 42.5059 76.242 42.9449 75.765 43.3639L75.7338 43.3901C75.3836 43.6835 75.1251 43.9001 75.059 44.3789L72.799 42.7319C72.9116 42.4365 73.1371 42.563 73.3597 42.688C73.4415 42.7338 73.5228 42.7795 73.598 42.8039C73.989 42.9329 74.414 42.9689 74.814 42.8629C75.498 42.6809 76.191 42.0399 76.374 41.3439C76.602 40.4789 75.753 40.2169 75.107 40.5199C74.796 40.6658 74.4992 40.8613 74.2066 41.0541C74.0899 41.1309 73.974 41.2073 73.858 41.2799C73.205 41.6869 72.437 41.9949 71.7 41.6109C71.052 41.2749 70.611 40.6209 70.611 39.8849C70.611 39.0879 71.064 38.3899 71.598 37.8349C71.7222 37.7063 71.8723 37.5799 72.0268 37.4497C72.4297 37.1101 72.8629 36.7451 72.946 36.2499C73.501 36.6259 74.056 37.0009 74.613 37.3759C74.7051 37.4389 74.6888 37.46 74.6383 37.5256L74.6383 37.5256C74.623 37.5455 74.6045 37.5695 74.585 37.5999C74.5378 37.6738 74.2147 37.6375 73.9506 37.6078L73.9505 37.6078C73.8174 37.5929 73.6993 37.5796 73.639 37.5829C73.043 37.6189 72.443 37.8799 72.139 38.4199C71.789 39.0419 72.276 39.7139 72.951 39.3949C73.0004 39.3713 73.09 39.3159 73.2113 39.2409ZM94.544 10.3359C94.5089 10.3519 94.4786 10.3767 94.456 10.4079L93.666 11.3579L92.852 12.3399C92.824 12.374 92.7956 12.4049 92.7692 12.4336L92.7691 12.4337C92.6376 12.5769 92.5572 12.6645 92.827 12.8069C93.37 12.5349 96.345 17.5749 96.079 18.2989C95.609 18.5429 91.589 15.0159 91.481 14.7829C91.4717 14.756 91.4819 14.6911 91.4943 14.613C91.5255 14.4158 91.5699 14.1348 91.345 14.1699C91.2346 14.187 91.0221 14.4988 90.8812 14.7056L90.8812 14.7057L90.8811 14.7057L90.881 14.706C90.8318 14.7781 90.7913 14.8375 90.767 14.8669L90.19 15.5619C90.3209 15.7528 90.4165 15.7076 90.5354 15.6515C90.6127 15.615 90.6999 15.5738 90.813 15.5899C91.0411 15.6358 91.8569 16.3229 92.1904 16.6038L92.1905 16.6039L92.1905 16.6039L92.1906 16.604L92.269 16.6699C92.1125 16.6756 91.8669 16.687 91.6029 16.6993C91.0743 16.7239 90.4721 16.7519 90.364 16.7439C90.0282 16.7858 89.987 16.6381 89.9405 16.4716C89.9059 16.3476 89.8684 16.2132 89.704 16.1389L88.226 17.9339L87.366 18.9769C87.3619 18.9819 87.3583 18.986 87.3553 18.9894C87.3476 18.9981 87.3438 19.0025 87.3443 19.0063C87.3447 19.0101 87.3494 19.0133 87.3588 19.0198C87.3675 19.0258 87.3801 19.0345 87.397 19.0489C87.4271 19.0737 87.45 19.0936 87.4682 19.1094C87.5079 19.1438 87.5242 19.1581 87.5406 19.158C87.5521 19.158 87.5636 19.1509 87.5831 19.1388C87.6139 19.1199 87.6647 19.0885 87.767 19.0529C88.095 18.9379 92.023 22.2529 92.165 22.4219C92.2768 22.5551 92.2658 22.6985 92.2557 22.8302C92.2436 22.9873 92.2329 23.1279 92.433 23.2149L93.601 21.7969C93.6136 21.7816 93.6249 21.7698 93.6342 21.7601C93.6687 21.7243 93.6754 21.7173 93.614 21.6669C93.4611 21.5411 93.3828 21.5963 93.286 21.6646C93.2075 21.72 93.1167 21.784 92.964 21.7669C92.6647 21.7176 90.7465 20.1175 89.6045 19.1649L89.6033 19.164L89.599 19.1604L89.5975 19.1591L89.5914 19.1541C89.4186 19.0099 89.264 18.881 89.136 18.7749L94.458 18.5779C94.653 18.5709 95.198 19.1589 95.153 19.3679C95.1371 19.4426 95.1027 19.5054 95.0723 19.561C95.0033 19.687 94.9545 19.7761 95.187 19.8829C95.3104 19.7346 95.4366 19.5866 95.563 19.4383L95.563 19.4382L95.5631 19.4381L95.5632 19.438L95.5633 19.4379L95.5633 19.4379C95.7555 19.2125 95.9481 18.9865 96.132 18.7579L96.28 18.5739C96.3377 18.5278 96.3839 18.4689 96.415 18.4019L96.525 18.2649C96.5515 18.2347 96.5838 18.1981 96.6203 18.1567L96.6227 18.154L96.6229 18.1538C96.9666 17.7646 97.6835 16.9528 97.587 16.8689C97.4471 16.7477 97.3406 16.8053 97.2265 16.867C97.096 16.9376 96.9553 17.0137 96.743 16.8339C96.5375 16.6867 96.0502 15.8483 95.8567 15.5154L95.808 15.4319C95.6546 15.1714 96.0886 14.9117 96.348 14.7565C96.3793 14.7377 96.4081 14.7205 96.433 14.7049C96.937 14.3919 98.54 13.9379 98.693 14.9319C98.7038 15.004 98.6724 15.0802 98.6429 15.1518C98.604 15.2461 98.5686 15.3321 98.638 15.3889C98.6433 15.3935 98.6514 15.4019 98.6613 15.4122C98.7035 15.4564 98.7792 15.5353 98.814 15.4939L100.956 12.9179C100.936 12.901 100.915 12.8799 100.893 12.858C100.847 12.8115 100.797 12.7617 100.746 12.7419C100.272 13.2149 95.28 11.2219 94.916 10.9469C94.8397 10.9166 94.793 10.772 94.7473 10.6306C94.6936 10.4643 94.6413 10.3024 94.544 10.3359ZM96.606 13.8489C95.845 13.5269 95.083 13.2069 94.319 12.8889L95.335 14.6369C95.5237 14.4502 95.7319 14.2843 95.956 14.1419H95.958C96.159 14.0149 96.376 13.9129 96.606 13.8489ZM87.731 20.6419C86.624 20.5659 85.501 21.0519 84.708 21.9589C83.473 23.4589 83.596 25.6369 85.101 26.9039C86.619 28.1539 88.781 27.8359 90.017 26.3539C91.249 24.8579 91.164 22.6739 89.632 21.4199C89.0974 20.9653 88.4319 20.6928 87.732 20.6419H87.731ZM88.024 22.9039C87.592 22.6149 86.904 22.2389 86.282 22.2009C85.909 22.1779 85.559 22.2779 85.302 22.5919C84.487 23.5879 85.764 24.7179 86.509 25.2559C87.253 25.7929 88.633 26.5699 89.433 25.7299C89.4395 25.7244 89.4455 25.7184 89.451 25.7119C89.584 25.5449 89.549 25.5839 89.501 25.6419C90.238 24.5909 88.804 23.4249 88.024 22.9039ZM83.155 26.4809C81.941 26.4139 80.752 26.9769 79.856 28.0569C79.3323 28.6859 78.81 29.3161 78.2879 29.946L77.934 30.3729C78.0575 30.5527 78.1923 30.5149 78.3428 30.4728C78.4702 30.4372 78.6088 30.3984 78.761 30.4859C79.044 30.6489 82.814 33.7979 82.876 33.9709C82.9225 34.1011 82.8965 34.1856 82.8745 34.2572C82.8463 34.349 82.8245 34.4199 82.97 34.5389C83.081 34.6319 85.914 31.1339 86.173 30.5189C86.621 29.3799 86.264 28.1319 85.353 27.3439C85.426 27.4039 85.53 27.4889 85.311 27.3069C84.621 26.7889 83.884 26.5199 83.155 26.4799V26.4809ZM82.368 28.0979C82.286 28.0769 82.197 28.0639 82.102 28.0609V28.0599C81.441 28.0349 80.52 28.4179 80.045 28.9389C79.886 29.1139 83.867 32.3379 84.065 32.1479C84.2477 31.9725 84.3215 31.9091 84.3621 31.8742C84.411 31.8321 84.4117 31.8315 84.497 31.7259C85.752 30.2129 83.79 28.4609 82.368 28.0979Z" fill="white"/>
</svg>
